<svg width="804" height="697.68253"
    xmlns="http://www.w3.org/2000/svg">

    <g>
        <title>background</title>
        <rect fill="none" id="canvas_background" height="602" width="802" y="-1" x="-1"/>
    </g>
    <g>
        <title>Layer 1</title>
        <rect id="svg_41" height="696.20003" width="364.13715" y="-1.45958" x="312.38075" fill-opacity="null" stroke-opacity="null" stroke-width="null" stroke="null" fill="#e6e6e6"/>
        <rect id="svg_40" height="628.27808" width="307.53552" y="30.61467" x="342.56829" fill-opacity="null" stroke-opacity="null" stroke-width="null" stroke="null" fill="#fff"/>
        <path id="svg_3" fill="#3f3d56" d="m410.02218,418.80527a1.808,1.808 0 0 1 -1.27843,-3.08637l11.75182,-11.75182a1.808,1.808 0 0 1 2.55686,2.5568l-11.75182,11.75182a1.80221,1.80221 0 0 1 -1.27843,0.52957zm29.83154,-4.51993a1.808,1.808 0 0 1 -1.27843,-3.08637l9.94385,-9.94385a1.808,1.808 0 0 1 2.55686,2.5568l-9.94385,9.94385a1.80217,1.80217 0 0 1 -1.27843,0.52958l0,-0.00001zm-5.42391,0a1.80221,1.80221 0 0 1 -1.27844,-0.52957l-7.23189,-7.23189a1.808,1.808 0 1 1 2.55687,-2.5568l7.23189,7.23189a1.808,1.808 0 0 1 -1.27843,3.08637z"/>
        <path id="svg_4" fill="#3f3d56" d="m452.50953,404.3415a4.51993,4.51993 0 1 1 4.51993,-4.51993a4.525,4.525 0 0 1 -4.51993,4.51993zm0,-5.42392a0.904,0.904 0 1 0 0.904,0.904a0.905,0.905 0 0 0 -0.904,-0.904z"/>
        <path id="svg_5" fill="#3f3d56" d="m437.14176,419.70927a4.51993,4.51993 0 1 1 4.51994,-4.51993a4.525,4.525 0 0 1 -4.51994,4.51993zm0,-5.42392a0.904,0.904 0 1 0 0.904,0.904a0.905,0.905 0 0 0 -0.904,-0.904z"/>
        <path id="svg_6" fill="#3f3d56" d="m424.486,407.05346a4.51993,4.51993 0 1 1 4.51993,-4.51993a4.525,4.525 0 0 1 -4.51993,4.51993zm0,-5.42392a0.904,0.904 0 1 0 0.904,0.904a0.905,0.905 0 0 0 -0.904,-0.904z"/>
        <path id="svg_7" fill="#3f3d56" d="m407.31022,424.2292a4.51993,4.51993 0 1 1 4.51993,-4.51993a4.525,4.525 0 0 1 -4.51993,4.51993zm0,-5.42392a0.904,0.904 0 1 0 0.904,0.904a0.905,0.905 0 0 0 -0.904,-0.90401l0,0.00001z"/>
        <path transform="rotate(52.907108306884766 559.9099121093747,539.2454833984376) " id="svg_9" fill="#3f3d56" d="m559.90987,547.38136a1.805,1.805 0 0 1 -1.11,-0.38087l-16.27175,-12.65581a1.80795,1.80795 0 1 1 2.22,-2.8542l15.16177,11.79243l15.16177,-11.79243a1.80795,1.80795 0 1 1 2.22,2.8542l-16.27175,12.65581a1.805,1.805 0 0 1 -1.11004,0.38087z"/>
        <path id="svg_10" fill="#ccc" d="m763.83465,588.68254l-209.14131,0.08288a1,1 0 0 1 0,-2l209.14131,-0.08288a1,1 0 0 1 0,2z"/>
        <circle id="svg_11" fill="#f50057" r="14" cy="587.68253" cx="761.05118"/>
        <path id="svg_12" fill="#ccc" d="m758.83465,320.68254l-211.14131,0.08288a1,1 0 0 1 0,-2l211.14131,-0.08288a1,1 0 0 1 0,2z"/>
        <circle id="svg_13" fill="#f50057" r="14" cy="320.68253" cx="761.05118"/>
        <path id="svg_14" fill="#ccc" d="m218.26772,183.68254l211.1413,0.08288a1,1 0 0 0 0,-2l-211.1413,-0.08288a1,1 0 1 0 0,2z"/>
        <circle id="svg_15" fill="#f50057" r="14" cy="183.68253" cx="216.05118"/>
        <path id="svg_16" fill="#ccc" d="m218.26772,454.68254l211.1413,0.08288a1,1 0 0 0 0,-2l-211.1413,-0.08288a1,1 0 1 0 0,2z"/>
        <circle id="svg_17" fill="#f50057" r="14" cy="454.68253" cx="216.05118"/>
        <path id="svg_18" fill="#ccc" d="m559.90987,588.76542a45,45 0 1 1 45,-45a45.05109,45.05109 0 0 1 -45,45zm0,-88a43,43 0 1 0 43,43a43.04864,43.04864 0 0 0 -43,-43z"/>
        <path id="svg_19" fill="#ccc" d="m429.90987,454.76542a45,45 0 1 1 45,-45a45.05109,45.05109 0 0 1 -45,45zm0,-88a43,43 0 1 0 43,43a43.04864,43.04864 0 0 0 -43,-43z"/>
        <path id="svg_20" fill="#ccc" d="m550.90987,320.76542a45,45 0 1 1 45,-45a45.05109,45.05109 0 0 1 -45,45zm0,-88a43,43 0 1 0 43,43a43.04864,43.04864 0 0 0 -43,-43z"/>
        <path id="svg_21" fill="#ccc" d="m430.90987,183.68254a45,45 0 1 1 45,-45a45.0511,45.0511 0 0 1 -45,45zm0,-88a43,43 0 1 0 43,43a43.04864,43.04864 0 0 0 -43,-43z"/>
        <path id="svg_22" fill="#a0616a" d="m148.5023,488.57944a11.01912,11.01912 0 0 1 -4.302,-7.88086a10.26913,10.26913 0 0 1 -0.02539,-1.08007l-46.56811,-31.36231a8.55177,8.55177 0 0 1 -3.33667,-9.66992l22.25684,-55.2959a9.69886,9.69886 0 0 1 18.02343,7.1709l-17.96972,45.69043l36.26122,32.93556a10.46216,10.46216 0 0 1 1.45312,-0.22461a11.00091,11.00091 0 0 1 2.9834,21.76269a11.40682,11.40682 0 0 1 -2.14673,0.20606a10.86469,10.86469 0 0 1 -6.62939,-2.25197z"/>
        <path id="svg_23" fill="#f50057" d="m97.62572,415.8499a4.8117,4.8117 0 0 1 0.10142,-4.00962l10.62461,-21.716a13.37737,13.37737 0 0 1 25.5217,8.02829l-3.879,23.94191a4.81688,4.81688 0 0 1 -6.21361,3.82l-23.18522,-7.368a4.81145,4.81145 0 0 1 -2.9699,-2.69658z"/>
        <polygon id="svg_24" fill="#a0616a" points="170.908 683.95 183.168 683.95 189 636.662 170.906 636.663 170.908 683.95"/>
        <path id="svg_25" fill="#2f2e41" d="m167.78058,679.94761l24.1438,-0.001l0.001,0a15.38605,15.38605 0 0 1 15.38647,15.38623l0,0.5l-39.53051,0.00147l-0.00076,-15.8867z"/>
        <polygon id="svg_26" fill="#a0616a" points="51.025 675.264 62.899 678.315 80.319 633.967 62.794 629.464 51.025 675.264"/>
        <path id="svg_27" fill="#2f2e41" d="m48.99251,670.60848l23.384,6.00926l0.00095,0.00024a15.386,15.386 0 0 1 11.072,18.73209l-0.12447,0.48426l-38.28651,-9.83906l3.95403,-15.38679z"/>
        <circle id="svg_28" fill="#a0616a" r="24.56103" cy="334.98029" cx="137.01471"/>
        <path id="svg_29" fill="#f50057" d="m124.59238,437.14097a88.72978,88.72978 0 0 1 -14.73608,-20.23438a32.71635,32.71635 0 0 1 -1.54028,-26.47656a33.44218,33.44218 0 0 1 18.99072,-19.34476a32.87972,32.87972 0 0 1 41.6123,15.44629c6.14576,12.02734 8.5542,23.78613 7.1587,34.95215c-2.66822,21.3457 -4.23023,32.37891 -4.64258,32.791l-0.13721,0.13769l-45.68945,2.03027l-1.01612,-19.3017z"/>
        <path id="svg_30" fill="#2f2e41" d="m127.306,450.53536l40.88708,-2.03514a4,4 0 0 1 4.183,3.63962l18.8086,210.83184a4,4 0 0 1 -4.06926,4.35453l-15.97385,-0.33987a4,4 0 0 1 -3.79715,-3.03562l-30.51619,-122.96235a4,4 0 0 0 -7.5156,-0.70944l-57.82978,125.59906a4,4 0 0 1 -4.643,2.19755l-16.0757,-4.19366a3.9948,3.9948 0 0 1 -2.90489,-4.693c5.28922,-24.96831 36.97167,-167.9555 76.86151,-207.5331a3.94084,3.94084 0 0 1 2.58523,-1.12042z"/>
        <path id="svg_31" fill="#a0616a" d="m204.73325,474.20737a11.01841,11.01841 0 0 1 -6.75781,-5.91308a10.35271,10.35271 0 0 1 -0.39673,-1.00391l-54.531,-13.36328a8.55185,8.55185 0 0 1 -6.469,-7.92481l1.80469,-59.57812a9.69885,9.69885 0 0 1 19.39087,0.50879l-1.09644,49.084l45.40088,18.39746a10.744,10.744 0 0 1 1.28516,-0.71289l0.00049,0a11.01049,11.01049 0 1 1 1.36889,20.50586l0,-0.00002z"/>
        <path id="svg_32" fill="#f50057" d="m132.56717,416.11102a4.81171,4.81171 0 0 1 -1.25291,-3.81019l2.70274,-24.02416a13.37737,13.37737 0 0 1 26.7351,-1.02221l4.39856,23.85193a4.81687,4.81687 0 0 1 -4.567,5.6871l-24.31266,0.85825a4.81149,4.81149 0 0 1 -3.70383,-1.54072z"/>
        <path id="svg_33" fill="#2f2e41" d="m101.82094,367.40673l2.56631,-8.29416l1.75489,9.30867l14.413,-0.38175l-0.06644,-9.17783l5.479,9.05734l13.0608,-2.88663c-2.79026,-3.718 -5.6137,-7.49394 -7.3982,-11.87661s-2.43414,-9.52219 -0.76677,-13.95851c4.12231,-10.96814 19.75146,-7.89894 28.29987,-7.99195c2.49388,-0.02713 5.30932,-0.20677 6.94257,-2.24571c1.22984,-1.53532 1.43135,-3.73159 1.369,-5.762c-0.321,-10.45468 -6.59769,-20.42873 -15.47137,-24.58506a23.981,23.981 0 0 0 -13.9051,-1.88355a25.13925,25.13925 0 0 0 -7.09156,2.23369c-1.99719,0.97562 -4.09482,3.29907 -6.24511,3.23616c-1.80717,-0.05286 -4.19946,-1.935 -6.16588,-2.2566a19.05966,19.05966 0 0 0 -7.1235,0.24862a22.37477,22.37477 0 0 0 -12.07628,7.22647c-6.68033,7.76217 -8.66524,19.20034 -7.50091,29.73068s5.10364,20.43362 8.99909,30.16588"/>
        <path id="svg_34" fill="#e6e6e6" d="m803,697.68254l-802,0a1,1 0 0 1 0,-2l802,0a1,1 0 0 1 0,2z"/>
        <path id="svg_35" fill="#f2f2f2" d="m789.47028,685.28916a19.3089,19.3089 0 0 0 6.37547,-9.59647c0.81354,-3.81863 -0.81353,-8.3014 -4.44955,-9.77908c-4.08429,-1.57729 -8.45082,1.26183 -11.75479,4.11747s-7.106,6.12644 -11.43933,5.51214a17.38311,17.38311 0 0 0 5.32951,-16.28725a6.64138,6.64138 0 0 0 -1.49426,-3.32056c-2.258,-2.42405 -6.37547,-1.37806 -9.09834,0.5313c-8.63346,6.07658 -11.04087,17.79816 -11.07407,28.35763c-0.88,-3.81863 -0.14942,-7.78672 -0.166,-11.622s-1.09579,-8.3014 -4.38314,-10.3269a13.28241,13.28241 0 0 0 -6.64112,-1.57728c-3.885,-0.13286 -8.20179,0.24908 -10.85824,3.08809c-3.32056,3.51979 -2.44061,9.447 0.43168,13.28225s7.22222,6.309 11.2235,8.99869a24.77172,24.77172 0 0 1 8.03575,7.65387a7.32233,7.32233 0 0 1 0.5977,1.36145l24.32312,0a67.68756,67.68756 0 0 0 15.04211,-10.39335z"/>
    </g>
</svg>