<svg width="94" height="107" viewBox="0 0 94 107" fill="none" xmlns="http://www.w3.org/2000/svg">
<path d="M6.65517 104.357L2 100.177L7.00001 90.8521L28.3793 50.9807V45.1929L34.069 40.6913V33.6174H21.1379H14.4138C12.1724 33.5102 7.89655 32.6527 8.72414 30.0804V20.4341C9.41379 18.2905 13.2759 14.1318 21.1379 14.6463V5.64307H72.3448V14.0032C80.6207 14.7749 84.7586 18.1833 85.7931 19.791C85.6207 22.5777 85.3793 28.537 85.7931 30.0804C86.2069 31.6238 82.8621 33.0815 81.1379 33.6174H72.3448H59.931V40.6913L65.6207 45.1929V50.9807L87.2832 90.8521L92 99.5337L88.3793 105L81.1379 101.141L72.531 90.8521L56.931 72.2026L55.1977 90.8521L54.2414 101.141L47 105L39.7586 101.141L39.1186 90.8521L37.9586 72.2026L22.1186 90.8521L13.3793 101.141L6.65517 104.357Z" fill="#FFC431"/>
<path d="M28.3793 50.9807V45.1929L34.069 40.6913M28.3793 50.9807H47M28.3793 50.9807L7.00001 90.8521M34.069 40.6913V33.6174M34.069 40.6913H59.931M34.069 33.6174H21.1379M34.069 33.6174H59.931M21.1379 33.6174H14.4138C12.1724 33.5102 7.89655 32.6527 8.72414 30.0804V20.4341C9.41379 18.2905 13.2759 14.1318 21.1379 14.6463V33.6174ZM21.1379 33.6174V5.64307H72.3448V14.0032M72.3448 33.6174H81.1379C82.8621 33.0815 86.2069 31.6238 85.7931 30.0804C85.3793 28.537 85.6207 22.5777 85.7931 19.791C84.7586 18.1833 80.6207 14.7749 72.3448 14.0032M72.3448 33.6174V14.0032M72.3448 33.6174H59.931M59.931 33.6174V40.6913M59.931 40.6913L65.6207 45.1929V50.9807M65.6207 50.9807H47M65.6207 50.9807L87.2832 90.8521M47.5172 60.9485L47 50.9807M47.5172 60.9485L37.9586 72.2026M47.5172 60.9485L56.931 72.2026M37.9586 72.2026L39.1186 90.8521M37.9586 72.2026L22.1186 90.8521M56.931 72.2026L72.531 90.8521M56.931 72.2026L55.1977 90.8521M87.2832 90.8521L92 99.5337L88.3793 105L81.1379 101.141L72.531 90.8521M87.2832 90.8521H72.531M55.1977 90.8521L54.2414 101.141L47 105L39.7586 101.141L39.1186 90.8521M55.1977 90.8521H39.1186M22.1186 90.8521L13.3793 101.141L6.65517 104.357L2 100.177L7.00001 90.8521M22.1186 90.8521H7.00001M59.931 18.5V26.8649H34.069V18M59.931 18.5L54.5 19M59.931 18.5V12.5L58.5 17L54.5 19M34.069 18L41.0517 19M34.069 18V12.5L35.5 17L41.0517 19M41.0517 19H54.5" stroke="black" stroke-width="2"/>
<path d="M47 18C50.0616 18 52.9302 17.2596 55.1001 15.9576C57.2301 14.6796 59 12.6354 59 10C59 7.36463 57.2301 5.32042 55.1001 4.04237C52.9302 2.74044 50.0616 2 47 2C43.9384 2 41.0698 2.74044 38.8999 4.04237C36.7699 5.32042 35 7.36463 35 10C35 12.6354 36.7699 14.6796 38.8999 15.9576C41.0698 17.2596 43.9384 18 47 18Z" fill="#91C0FF" stroke="black" stroke-width="4"/>
</svg>
