<svg width="94" height="104" viewBox="0 0 94 104" fill="none" xmlns="http://www.w3.org/2000/svg">
<path d="M18.4921 11.8446L10.3055 21.171L13.4156 30.8521L10.3055 39.5632L2 45.5233V58.4767L10.3055 63.9544L13.4156 71.7945L10.3055 82.3109L19.4346 92.2657L29.3549 89.2168L36.3527 92.2657L40.6387 102H53.3613L58.5123 92.2657L65.51 89.2168L76.9215 92.2657L84.5595 82.3109L81.0606 71.7945L84.5595 63.9544L92 58.4767V45.5233L83.782 39.5632L81.0606 30.8521L83.782 20.1347L75.9791 10.3808L65.51 14.3009L58.5123 10.3808L53.3613 2H40.6387L36.3527 9.94529L29.3549 14.3009L18.4921 11.8446Z" fill="#60686C" stroke="black" stroke-width="3"/>
<ellipse cx="47.2356" cy="51.7408" rx="31.5707" ry="34.1969" fill="#93A8C1" stroke="black" stroke-width="3"/>
<path d="M48.9314 27.9067H39.7501C38.67 31.7125 35.5094 39.925 34.0793 43.8309C32.6537 47.7249 34.5294 49.9402 35.9696 50.7415L48.9314 51.0419L45.2307 63.9616L44.4206 66.0648H42.8004C37.3997 65.7643 37.9397 66.3652 38.4798 67.8675L46.231 78.6839C50.9116 74.4775 60.6228 66.9661 57.3824 66.6657C56.0369 66.5409 52.9593 66.8753 52.5217 66.3652C52.0586 65.8253 52.5267 64.777 52.7119 64.262L59.1927 48.0373C61.137 43.7108 58.9227 42.0282 57.5725 41.7278H44.8808L44.3407 40.8264C45.7809 37.922 48.4712 32.1131 48.6613 31.8127C49.8213 29.409 50.6314 28.5077 48.9314 27.9067Z" fill="#FFDC00" stroke="black" stroke-width="4" stroke-linejoin="round"/>
</svg>
