<svg width="41" height="35" viewBox="0 0 41 35" fill="none" xmlns="http://www.w3.org/2000/svg">
<path d="M30.75 23.5156C29.8175 23.516 28.9084 23.7645 28.1491 24.2266L14.7344 17.8281C14.7344 17.7188 14.7344 17.6094 14.7344 17.5C14.7344 17.3906 14.7344 17.2813 14.7344 17.1719L28.1875 10.7735C29.012 11.2635 30.0053 11.503 31.0083 11.4536C32.0113 11.4042 32.9658 11.0687 33.7187 10.5009C34.4717 9.93315 34.9795 9.16599 35.1607 8.32244C35.3419 7.47889 35.1861 6.60783 34.7182 5.8489C34.2503 5.08998 33.4974 4.48717 32.5803 4.13711C31.6631 3.78706 30.6349 3.71005 29.6603 3.91843C28.6858 4.12681 27.8215 4.6085 27.2059 5.28628C26.5903 5.96406 26.2592 6.79866 26.2656 7.65626C26.258 7.78561 26.258 7.9152 26.2656 8.04454L12.9086 14.4211C12.241 14 11.4496 13.7454 10.6225 13.6856C9.79535 13.6257 8.96502 13.763 8.22392 14.0822C7.48282 14.4014 6.86004 14.8899 6.42491 15.4933C5.98979 16.0967 5.7594 16.7914 5.7594 17.5C5.7594 18.2086 5.98979 18.9033 6.42491 19.5067C6.86004 20.1102 7.48282 20.5987 8.22392 20.9178C8.96502 21.237 9.79535 21.3743 10.6225 21.3145C11.4496 21.2546 12.241 21 12.9086 20.5789L26.2656 26.9555C26.258 27.0848 26.258 27.2144 26.2656 27.3438C26.2656 28.1009 26.5286 28.841 27.0214 29.4706C27.5141 30.1001 28.2145 30.5907 29.0339 30.8805C29.8533 31.1702 30.755 31.246 31.6249 31.0983C32.4947 30.9506 33.2938 30.586 33.9209 30.0507C34.5481 29.5153 34.9752 28.8332 35.1482 28.0906C35.3212 27.348 35.2324 26.5783 34.893 25.8788C34.5536 25.1793 33.9788 24.5814 33.2414 24.1608C32.5039 23.7402 31.6369 23.5156 30.75 23.5156Z" fill="#B6DCFE"/>
<path d="M30.75 3.82812C29.5607 3.82813 28.42 4.23144 27.5791 4.94936C26.7381 5.66727 26.2656 6.64097 26.2656 7.65625C26.2656 8.67153 26.7381 9.64523 27.5791 10.3631C28.42 11.0811 29.5607 11.4844 30.75 11.4844C31.9393 11.4844 33.0799 11.0811 33.9209 10.3631C34.7619 9.64523 35.2344 8.67153 35.2344 7.65625C35.2344 6.64097 34.7619 5.66727 33.9209 4.94936C33.0799 4.23144 31.9393 3.82813 30.75 3.82812ZM30.75 23.5156C29.5607 23.5156 28.42 23.9189 27.5791 24.6369C26.7381 25.3548 26.2656 26.3285 26.2656 27.3437C26.2656 28.359 26.7381 29.3327 27.5791 30.0506C28.42 30.7686 29.5607 31.1719 30.75 31.1719C31.9393 31.1719 33.0799 30.7686 33.9209 30.0506C34.7619 29.3327 35.2344 28.359 35.2344 27.3437C35.2344 26.3285 34.7619 25.3548 33.9209 24.6369C33.0799 23.9189 31.9393 23.5156 30.75 23.5156Z" fill="#B6DCFE"/>
<path d="M30.75 22.9688C29.8249 22.967 28.9168 23.1807 28.1234 23.5867L15.375 17.5L28.1234 11.4133L28.2387 11.4625L28.5975 11.6211L28.8473 11.7141L29.1933 11.818L29.4687 11.8891C29.5969 11.9164 29.725 11.9383 29.8531 11.9547L30.103 11.993C30.3175 12.0175 30.5336 12.0303 30.75 12.0313C31.7636 12.0313 32.7545 11.7747 33.5973 11.2939C34.4401 10.8132 35.097 10.1299 35.4849 9.33049C35.8728 8.53107 35.9743 7.6514 35.7765 6.80273C35.5788 5.95407 35.0907 5.17452 34.3739 4.56266C33.6572 3.95081 32.744 3.53413 31.7498 3.36532C30.7557 3.19651 29.7252 3.28315 28.7887 3.61428C27.8523 3.94541 27.0519 4.50617 26.4887 5.22563C25.9256 5.9451 25.625 6.79096 25.625 7.65625C25.625 7.65625 25.625 7.71094 25.625 7.73282L12.9406 13.7813C12.1335 13.3515 11.2012 13.1241 10.25 13.125C8.89076 13.125 7.5872 13.5859 6.62608 14.4064C5.66495 15.2269 5.125 16.3397 5.125 17.5C5.125 18.6603 5.66495 19.7731 6.62608 20.5936C7.5872 21.4141 8.89076 21.875 10.25 21.875C11.2012 21.8759 12.1335 21.6485 12.9406 21.2188L25.625 27.2672V27.3438C25.6265 27.5267 25.6415 27.7093 25.6698 27.8906C25.6698 27.9399 25.6698 27.9891 25.6698 28.0383C25.6955 28.1768 25.7296 28.3136 25.7723 28.4485C25.7723 28.4922 25.7723 28.5359 25.8108 28.5797C25.8675 28.7471 25.9359 28.9115 26.0158 29.0719L26.0862 29.2031C26.1503 29.318 26.2208 29.4328 26.2977 29.5477C26.3745 29.6625 26.3361 29.6133 26.3553 29.6461L26.3937 29.6844C26.8697 30.326 27.5331 30.8508 28.3187 31.2071C29.1043 31.5635 29.985 31.7391 30.8742 31.7168C31.7635 31.6945 32.6306 31.4749 33.3903 31.0798C34.15 30.6846 34.7761 30.1275 35.2071 29.4631C35.638 28.7987 35.859 28.05 35.8482 27.2907C35.8374 26.5313 35.5953 25.7874 35.1455 25.1321C34.6958 24.4769 34.0541 23.9328 33.2834 23.5535C32.5127 23.1742 31.6396 22.9727 30.75 22.9688ZM30.75 30.625C30.0781 30.6225 29.4187 30.4697 28.8376 30.1818C28.2565 29.894 27.7739 29.4811 27.438 28.9844C27.3782 28.9005 27.3248 28.8149 27.2778 28.7274L27.2202 28.6289C27.1605 28.5095 27.1091 28.3871 27.0664 28.2625V28.1586C27.0365 28.0565 27.0109 27.9544 26.9895 27.8524C26.9895 27.8141 26.9895 27.7758 26.9895 27.7375C26.9546 27.4905 26.9546 27.2408 26.9895 26.9938C27.0283 26.67 27.1233 26.353 27.2714 26.0531C27.3081 25.9865 27.3287 25.9143 27.3319 25.8408C27.3351 25.7672 27.3209 25.6939 27.2901 25.6251C27.2593 25.5564 27.2126 25.4936 27.1528 25.4407C27.0929 25.3877 27.0211 25.3456 26.9417 25.3169C26.8624 25.2881 26.777 25.2734 26.6908 25.2735C26.6046 25.2736 26.5193 25.2885 26.44 25.3175C26.3607 25.3464 26.2891 25.3887 26.2294 25.4418C26.1697 25.4949 26.1232 25.5578 26.0927 25.6266C26.0182 25.7801 25.954 25.9371 25.9005 26.0969L13.2866 20.0813C13.1791 20.0303 13.0567 20.0068 12.934 20.0136C12.8114 20.0204 12.6936 20.0572 12.5947 20.1195C11.9197 20.5543 11.0955 20.7868 10.25 20.7813C9.23057 20.7813 8.2529 20.4356 7.53206 19.8202C6.81121 19.2049 6.40625 18.3702 6.40625 17.5C6.40625 16.6298 6.81121 15.7952 7.53206 15.1798C8.2529 14.5645 9.23057 14.2188 10.25 14.2188C11.0685 14.2199 11.8653 14.444 12.5242 14.8586C12.6231 14.921 12.7409 14.9578 12.8636 14.9645C12.9862 14.9713 13.1086 14.9478 13.2161 14.8969L26.5987 8.52032C26.7111 8.46753 26.8022 8.3872 26.8605 8.28971C26.9187 8.19221 26.9414 8.08204 26.9255 7.97344C26.8351 7.28587 26.9991 6.5914 27.3945 5.98742C27.7899 5.38344 28.3968 4.90024 29.1301 4.60557C29.8634 4.31091 30.6864 4.21956 31.4836 4.34433C32.2808 4.46911 33.0122 4.80375 33.5754 5.30133C34.1386 5.79891 34.5052 6.43448 34.6238 7.11891C34.7425 7.80335 34.6072 8.50231 34.237 9.11781C33.8668 9.7333 33.2802 10.2344 32.5595 10.551C31.8388 10.8675 31.0201 10.9835 30.2183 10.8828H30.0453L29.6866 10.8117L29.5136 10.768C29.3671 10.7262 29.2238 10.6769 29.0844 10.6203H29.0267C28.8575 10.5467 28.6947 10.4626 28.5398 10.3688C28.1892 10.1603 27.8818 9.90338 27.6302 9.6086C27.5825 9.54713 27.5208 9.49453 27.4487 9.45393C27.3767 9.41334 27.2958 9.3856 27.2108 9.37237C27.1259 9.35915 27.0387 9.36072 26.9545 9.37699C26.8703 9.39326 26.7908 9.42388 26.7208 9.46704C26.6508 9.51019 26.5918 9.56497 26.5472 9.62809C26.5026 9.69122 26.4735 9.76138 26.4615 9.83436C26.4495 9.90735 26.4549 9.98165 26.4774 10.0528C26.4999 10.124 26.539 10.1905 26.5923 10.2484C26.7313 10.4104 26.8833 10.5639 27.0472 10.7078L14.4077 16.7234C14.2953 16.7762 14.2042 16.8566 14.1459 16.9541C14.0877 17.0516 14.065 17.1617 14.0809 17.2703C14.0809 17.3633 14.0809 17.4563 14.0809 17.5492C14.0809 17.6422 14.0809 17.7352 14.0809 17.8281C14.065 17.9367 14.0877 18.0469 14.1459 18.1444C14.2042 18.2419 14.2953 18.3222 14.4077 18.375L27.8608 24.7734C27.9669 24.8241 28.0877 24.8479 28.2091 24.842C28.3305 24.8362 28.4474 24.8011 28.5462 24.7406C29.0356 24.4208 29.6078 24.206 30.2147 24.1145C30.8216 24.023 31.4454 24.0574 32.0335 24.2149C32.6216 24.3723 33.1567 24.6481 33.5937 25.0191C34.0307 25.3901 34.3568 25.8454 34.5445 26.3465C34.7321 26.8477 34.7759 27.38 34.6721 27.8986C34.5682 28.4172 34.3198 28.9069 33.9478 29.3263C33.5758 29.7458 33.0911 30.0827 32.5345 30.3088C31.978 30.5348 31.3659 30.6433 30.75 30.625ZM10.25 11.4844C10.4199 11.4844 10.5828 11.4268 10.703 11.3242C10.8231 11.2216 10.8906 11.0825 10.8906 10.9375V9.84376C10.8906 9.69871 10.8231 9.55961 10.703 9.45706C10.5828 9.3545 10.4199 9.29688 10.25 9.29688C10.0801 9.29688 9.91715 9.3545 9.79701 9.45706C9.67687 9.55961 9.60937 9.69871 9.60937 9.84376V10.9375C9.60937 11.0825 9.67687 11.2216 9.79701 11.3242C9.91715 11.4268 10.0801 11.4844 10.25 11.4844ZM5.84891 12.0914C5.93755 12.2104 6.07664 12.2956 6.23713 12.3292C6.39761 12.3628 6.56708 12.3421 6.71014 12.2715C6.85319 12.2009 6.95876 12.0859 7.0048 11.9504C7.05083 11.8149 7.03378 11.6695 6.95719 11.5445L6.31656 10.5984C6.27651 10.5331 6.22139 10.4753 6.15451 10.4286C6.08764 10.3819 6.01038 10.3473 5.92741 10.3267C5.84443 10.3062 5.75744 10.3002 5.67167 10.309C5.5859 10.3179 5.50312 10.3416 5.42832 10.3785C5.35351 10.4154 5.28823 10.4648 5.23639 10.5238C5.18456 10.5828 5.14724 10.6502 5.12668 10.7218C5.10613 10.7935 5.10276 10.8679 5.11678 10.9407C5.13081 11.0135 5.16193 11.0831 5.20828 11.1453L5.84891 12.0914ZM3.91422 13.743L2.80594 13.1961C2.73302 13.1565 2.65149 13.13 2.56623 13.118C2.48098 13.106 2.39377 13.1089 2.30985 13.1264C2.22593 13.144 2.14703 13.1758 2.07791 13.2201C2.00879 13.2644 1.95086 13.3201 1.90762 13.3839C1.86439 13.4478 1.83673 13.5185 1.82631 13.5917C1.81589 13.6649 1.82293 13.7392 1.847 13.81C1.87107 13.8808 1.91168 13.9468 1.96639 14.0039C2.02109 14.061 2.08875 14.108 2.16531 14.1422L3.27359 14.6891C3.37123 14.7363 3.48168 14.7608 3.59391 14.7602C3.73575 14.761 3.87391 14.7216 3.98673 14.6482C4.09954 14.5748 4.18063 14.4715 4.21727 14.3546C4.25391 14.2376 4.24403 14.1135 4.18919 14.0019C4.13434 13.8902 4.03763 13.7972 3.91422 13.7375V13.743ZM3.20312 17.5C3.20312 17.355 3.13563 17.2159 3.01549 17.1133C2.89535 17.0107 2.7324 16.9531 2.5625 16.9531H1.28125C1.11135 16.9531 0.9484 17.0107 0.82826 17.1133C0.708119 17.2159 0.640625 17.355 0.640625 17.5C0.640625 17.645 0.708119 17.7841 0.82826 17.8867C0.9484 17.9893 1.11135 18.0469 1.28125 18.0469H2.5625C2.7324 18.0469 2.89535 17.9893 3.01549 17.8867C3.13563 17.7841 3.20312 17.645 3.20312 17.5ZM10.25 23.5156C10.0801 23.5156 9.91715 23.5733 9.79701 23.6758C9.67687 23.7784 9.60937 23.9175 9.60937 24.0625V25.1563C9.60937 25.3013 9.67687 25.4404 9.79701 25.543C9.91715 25.6455 10.0801 25.7031 10.25 25.7031C10.4199 25.7031 10.5828 25.6455 10.703 25.543C10.8231 25.4404 10.8906 25.3013 10.8906 25.1563V24.0625C10.8906 23.9175 10.8231 23.7784 10.703 23.6758C10.5828 23.5733 10.4199 23.5156 10.25 23.5156ZM6.72656 22.7117C6.65344 22.6756 6.57267 22.6521 6.48889 22.6427C6.40511 22.6333 6.31998 22.6382 6.2384 22.657C6.15683 22.6758 6.08041 22.7082 6.01357 22.7523C5.94672 22.7964 5.89076 22.8514 5.84891 22.9141L5.20828 23.8602C5.13169 23.9852 5.11463 24.1306 5.16067 24.266C5.20671 24.4015 5.31228 24.5165 5.45533 24.5871C5.59838 24.6577 5.76785 24.6784 5.92834 24.6448C6.08883 24.6113 6.22792 24.5261 6.31656 24.407L6.95719 23.4609C6.99981 23.3989 7.02766 23.3302 7.03913 23.2589C7.05061 23.1876 7.04549 23.1151 7.02406 23.0455C7.00264 22.9759 6.96533 22.9106 6.91428 22.8533C6.86323 22.796 6.79943 22.7479 6.72656 22.7117ZM3.27359 20.3055L2.16531 20.8524C2.08875 20.8865 2.02109 20.9336 1.96639 20.9907C1.91168 21.0478 1.87107 21.1137 1.847 21.1846C1.82293 21.2554 1.81589 21.3297 1.82631 21.4029C1.83673 21.4761 1.86439 21.5468 1.90762 21.6106C1.95086 21.6745 2.00879 21.7302 2.07791 21.7744C2.14703 21.8187 2.22593 21.8506 2.30985 21.8681C2.39377 21.8857 2.48098 21.8885 2.56623 21.8766C2.65149 21.8646 2.73302 21.838 2.80594 21.7984L3.91422 21.2516C3.99078 21.2174 4.05844 21.1703 4.11314 21.1132C4.16785 21.0561 4.20846 20.9902 4.23253 20.9194C4.2566 20.8485 4.26364 20.7743 4.25322 20.701C4.24281 20.6278 4.21514 20.5572 4.17191 20.4933C4.12867 20.4295 4.07074 20.3737 4.00162 20.3295C3.9325 20.2852 3.8536 20.2534 3.76968 20.2358C3.68577 20.2183 3.59855 20.2154 3.5133 20.2274C3.42805 20.2393 3.34651 20.2659 3.27359 20.3055Z" fill="#2196F3"/>
</svg>
