<svg width="94" height="102" viewBox="0 0 94 102" fill="none" xmlns="http://www.w3.org/2000/svg">
<path d="M2.09306 68.9873L2.11605 8.98482C1.58477 6.48074 2.76897 3.83114 7.92772 2.41752V14.9175C27.5029 15.0137 63.7958 15.1448 64.4179 14.9175C68.6613 14.9175 69.899 19.0842 69.9874 21.0222C70.0549 21.577 70.0511 22.0895 69.9874 22.5638V81.4873C69.563 85.4408 65.744 87.3981 63.8875 87.8826V75.0919C46.7371 74.995 10.5268 74.8594 7.13209 75.0919C3.73737 75.3245 2.35827 71.1191 2.09306 68.9873Z" fill="white"/>
<path d="M75.5568 12.3012C71.5787 4.45242 86.961 -6.30341 92 12.3012C92 12.3333 91.9997 12.3654 91.9993 12.3973L91.4696 80.3245C90.8507 82.8439 88.234 87.8826 82.7176 87.8826L82.6977 82.9408C77.9437 84.1036 75.8221 79.0648 75.5568 77.1268V12.3012Z" fill="white"/>
<path d="M2.11639 8.10465L2.09306 68.9873C2.35827 71.1191 3.73737 75.3245 7.13209 75.0919C10.5268 74.8594 46.7371 74.995 63.8875 75.0919V28.2896M63.8875 28.2896V87.8826C65.744 87.3981 69.563 85.4408 69.9874 81.4873V21.0222M63.8875 28.2896C66.6457 27.1268 70.5178 25.3826 69.9874 21.0222M69.9874 21.0222C69.899 19.0842 68.6613 14.9175 64.4179 14.9175C63.7958 15.1448 27.5029 15.0137 7.92772 14.9175M7.92772 14.9175C7.47631 14.9153 6.07116 14.5 5.80595 14.2093C2.4466 11.8837 -1.61991 5.0338 7.92772 2.41752V14.9175ZM82.4524 16.3274V12.3012C80.7727 12.3012 77.6785 9.10356 81.6567 7.06868C83.6016 6.87488 87.3853 7.65008 86.961 12.3012C86.4305 18.1152 78.0444 17.209 75.5568 12.3012M75.5568 12.3012C71.5787 4.45242 86.961 -6.30341 92 12.3012M75.5568 12.3012V77.1268C75.8221 79.0648 77.9438 84.1036 82.6977 82.9408M92 12.3012L91.4696 80.3245C90.8507 82.8439 88.234 87.8826 82.7176 87.8826L82.4524 21.8943C85.6349 20.8284 92 17.4175 92 12.3012Z" stroke="black" stroke-width="3" stroke-linecap="round" stroke-linejoin="round"/>
<path d="M30.2055 42.8655C31.7967 44.0283 37.6314 44.4418 39.7531 42.407C42.4052 40.3721 44.0112 28.3306 34.4489 28.3306C33.5981 28.3306 32.8409 28.4332 32.1697 28.6213C25.5179 30.4857 27.0229 41.8256 30.2055 42.8655Z" fill="#DE4747"/>
<path d="M18.5361 87.9236V71.3538L30.2055 42.8655M30.2055 42.8655C31.7967 44.0283 37.6314 44.4418 39.7531 42.407M30.2055 42.8655C27.0229 41.8256 25.5179 30.4857 32.1697 28.6213M39.7531 42.407C42.4052 40.3721 44.0112 28.3306 34.4489 28.3306C33.5981 28.3306 32.8409 28.4332 32.1697 28.6213M39.7531 42.407C39.2673 42.7797 40.3176 41.8655 39.7531 42.407ZM39.7531 42.407L50.6268 71.3538V81.819M50.6268 87.9236V81.819M50.6268 81.819L34.4489 45.7725L18.8013 82.4004M32.1697 28.6213L32.3272 21.0632C32.946 19.0283 34.7671 16.1213 37.101 20.7725V28.6213" stroke="black" stroke-width="3" stroke-linecap="round" stroke-linejoin="round"/>
<path d="M37.1618 36.3024C37.1618 38.0862 35.8628 39.3722 34.4488 39.3722C33.0349 39.3722 31.7358 38.0862 31.7358 36.3024C31.7358 34.5187 33.0349 33.2327 34.4488 33.2327C35.8628 33.2327 37.1618 34.5187 37.1618 36.3024Z" fill="#0666F7" stroke="black" stroke-width="2"/>
<path d="M12.5701 96.186H52.0923C53.6203 96.186 54.8589 97.4247 54.8589 98.9527V98.9527C54.8589 100.315 53.7549 101.419 52.393 101.419H12.5701V96.186Z" fill="#FD2F2F"/>
<ellipse cx="35.7093" cy="98.8024" rx="23.1392" ry="3.19767" fill="#7A7A7A"/>
<rect x="12.5701" y="96.186" width="9.97379" height="5.23256" fill="#464646"/>
<rect x="12.171" y="97.3489" width="1.59581" height="2.90698" fill="white"/>
</svg>
