<svg width="96" height="106" viewBox="0 0 96 106" fill="none" xmlns="http://www.w3.org/2000/svg">
<path d="M4.2653 77.8708C10.8232 98.2272 37.1984 103.104 49.5662 102.998C74.1586 101.408 86.2389 91.1339 91.4161 80.0972C96.1905 69.919 88.8561 52.4251 86.6702 54.9697L81.0616 59.4227C70.7071 64.5118 71.8576 52.7432 77.1786 48.6083C81.493 36.2035 67.2556 31.4325 70.7071 34.2951C74.1586 37.1578 57.3325 43.8372 61.2154 38.7481C64.3218 34.6768 61.2154 24.1169 57.3325 24.1169C45.2809 21.8904 49.5662 1.21582 49.1352 3.12425C30.4971 7.70446 32.7405 20.9362 36.192 26.9795C30.1519 42.883 -3.93201 52.4251 4.2653 77.8708Z" fill="#E82F3E" stroke="black" stroke-width="5"/>
<path d="M21.3907 68.3286C12.7619 88.9395 34.19 93.032 45.9826 92.5019C70.8333 92.5019 77.6387 64.1937 70.5748 67.0563L62.9699 72.7816C48.301 79.143 50.5006 68.3286 53.3173 65.466C58.4945 60.2042 59.3574 58.4684 58.4945 54.6516C57.8042 51.5981 48.7324 32.0686 45.9826 34.9312C42.6923 36.8396 48.14 52.4251 36.0598 57.1961C26.3956 61.013 22.2536 66.2081 21.3907 68.3286Z" fill="#EA9D2D" stroke="black" stroke-width="4"/>
<path d="M84.1102 15.9495C84.1102 15.473 84.4966 15.0867 84.9731 15.0867V15.0867C85.4497 15.0867 85.836 15.473 85.836 15.9495V21.8575C85.836 22.334 85.4497 22.7204 84.9731 22.7204V22.7204C84.4966 22.7204 84.1102 22.334 84.1102 21.8575V15.9495Z" fill="#C4C4C4" stroke="black" stroke-width="2" stroke-linecap="round" stroke-linejoin="round"/>
<path d="M77.2073 23.5832C77.2073 23.1067 77.5936 22.7203 78.0702 22.7203V22.7203C78.5467 22.7203 78.933 23.1067 78.933 23.5832V26.9466C78.933 27.4231 78.5467 27.8095 78.0702 27.8095V27.8095C77.5936 27.8095 77.2073 27.4231 77.2073 26.9466V23.5832Z" fill="#C4C4C4" stroke="black" stroke-width="2" stroke-linecap="round" stroke-linejoin="round"/>
<path d="M85.8361 38.2143C85.8361 37.7378 86.2224 37.3514 86.6989 37.3514V37.3514C87.1755 37.3514 87.5618 37.7378 87.5618 38.2143V41.5777C87.5618 42.0542 87.1755 42.4406 86.6989 42.4406V42.4406C86.2224 42.4406 85.8361 42.0542 85.8361 41.5777V38.2143Z" fill="#C4C4C4" stroke="black" stroke-width="2" stroke-linecap="round" stroke-linejoin="round"/>
<path d="M21.1202 21.0385C21.1202 20.562 21.5066 20.1757 21.9831 20.1757V20.1757C22.4597 20.1757 22.846 20.562 22.846 21.0385V24.4019C22.846 24.8785 22.4597 25.2648 21.9831 25.2648V25.2648C21.5066 25.2648 21.1202 24.8785 21.1202 24.4019V21.0385Z" fill="#C4C4C4" stroke="black" stroke-width="2" stroke-linecap="round" stroke-linejoin="round"/>
</svg>
