<svg width="135" height="177" viewBox="0 0 135 177" fill="none" xmlns="http://www.w3.org/2000/svg">
<rect x="22.5" y="31.5" width="110" height="143" rx="4.5" fill="#C4C4C4" stroke="black" stroke-width="5"/>
<rect x="12.5" y="16.5" width="110" height="143" rx="4.5" fill="#C4C4C4" stroke="black" stroke-width="5"/>
<path d="M108 2.5H7C4.51472 2.5 2.5 4.51472 2.5 7V141C2.5 143.485 4.51472 145.5 7 145.5H108C110.485 145.5 112.5 143.485 112.5 141V7C112.5 4.51472 110.485 2.5 108 2.5Z" fill="#C4C4C4" stroke="black" stroke-width="5"/>
<rect x="28" y="17" width="59" height="12" rx="6" fill="#8C9EFF" stroke="black" stroke-width="4"/>
<rect x="15.5" y="43.5" width="20" height="20" rx="4.5" fill="#FF3D7A" stroke="black" stroke-width="5"/>
<path d="M31 77.5H20C17.5147 77.5 15.5 79.5147 15.5 82V93C15.5 95.4853 17.5147 97.5 20 97.5H31C33.4853 97.5 35.5 95.4853 35.5 93V82C35.5 79.5147 33.4853 77.5 31 77.5Z" fill="#F9E109" stroke="black" stroke-width="5"/>
<rect x="15.5" y="111.5" width="20" height="20" rx="4.5" fill="#F9E109" stroke="black" stroke-width="5"/>
<path d="M24 49.5L27.5 55.5L42.5 42" stroke="black" stroke-width="6" stroke-linecap="round" stroke-linejoin="round"/>
<line x1="48.5" y1="48.5" x2="91.5" y2="48.5" stroke="black" stroke-width="5" stroke-linecap="round" stroke-linejoin="round"/>
<line x1="48.5" y1="58.5" x2="85.5" y2="58.5" stroke="black" stroke-width="5" stroke-linecap="round" stroke-linejoin="round"/>
<line x1="48.5" y1="92.5" x2="91.5" y2="92.5" stroke="black" stroke-width="5" stroke-linecap="round" stroke-linejoin="round"/>
<line x1="48.5" y1="115.5" x2="91.5" y2="115.5" stroke="black" stroke-width="5" stroke-linecap="round" stroke-linejoin="round"/>
<line x1="48.5" y1="126.5" x2="82.5" y2="126.5" stroke="black" stroke-width="5" stroke-linecap="round" stroke-linejoin="round"/>
<line x1="48.5" y1="81.5" x2="77.5" y2="81.5" stroke="black" stroke-width="5" stroke-linecap="round" stroke-linejoin="round"/>
</svg>
