<svg width="95" height="102" viewBox="0 0 95 102" fill="none" xmlns="http://www.w3.org/2000/svg">
<path d="M64.0549 30.1428L70.1054 22.6662C68.4553 15.5011 70.1054 1.86921 85.5067 4.59763L85.7817 5.22069L77.531 14.5665L83.0315 21.7316L91.5571 12.3858H92.3822C94.124 19.5509 93.1523 32.8842 76.4309 30.1428L70.1054 36.9964L64.0549 30.1428Z" fill="#D0D8DA"/>
<path d="M64.0549 30.1428L62.5002 28.8847L61.4366 30.199L62.5556 31.4664L64.0549 30.1428ZM70.1054 22.6662L72.0544 22.2174L70.1054 22.6662ZM85.5067 4.59763L87.3363 3.79L86.9057 2.81434L85.8555 2.6283L85.5067 4.59763ZM77.531 14.5665L76.0317 13.2428L74.9415 14.4777L75.9446 15.7843L77.531 14.5665ZM83.0315 21.7316L81.445 22.9495L82.8994 24.844L84.509 23.0795L83.0315 21.7316ZM92.3822 12.3858L94.3256 11.9134C94.1077 11.0169 93.3048 10.3858 92.3822 10.3858V12.3858ZM70.1054 36.9964L68.6061 38.32L70.0724 39.981L71.5751 38.3528L70.1054 36.9964ZM85.7817 5.22069L87.281 6.54433C87.7976 5.95922 87.9265 5.12708 87.6114 4.41305L85.7817 5.22069ZM91.5571 12.3858V10.3858H90.6745L90.0796 11.0379L91.5571 12.3858ZM65.6096 31.4009L71.6601 23.9244L68.5507 21.4081L62.5002 28.8847L65.6096 31.4009ZM72.0544 22.2174C71.2961 18.9249 71.347 14.2642 73.1731 10.8693C74.0584 9.2235 75.3449 7.8959 77.174 7.09383C79.0197 6.28447 81.5912 5.93513 85.1578 6.56697L85.8555 2.6283C81.7215 1.89593 78.3113 2.22742 75.5676 3.43057C72.8072 4.64102 70.8966 6.65764 69.6504 8.97443C67.2137 13.5046 67.2646 19.2424 68.1564 23.1151L72.0544 22.2174ZM75.9446 15.7843L81.445 22.9495L84.6179 20.5137L79.1175 13.3486L75.9446 15.7843ZM90.4388 12.8582C91.2531 16.208 91.3519 20.7561 89.5736 24.0231C88.7178 25.5953 87.4222 26.8902 85.473 27.6782C83.4916 28.4792 80.6881 28.814 76.7545 28.1692L76.1074 32.1165C80.5345 32.8423 84.1229 32.5385 86.9722 31.3866C89.8536 30.2217 91.8273 28.2495 93.0869 25.9354C95.5394 21.4298 95.2531 15.7287 94.3256 11.9134L90.4388 12.8582ZM74.9612 28.7863L68.6357 35.6399L71.5751 38.3528L77.9006 31.4993L74.9612 28.7863ZM62.5556 31.4664L68.6061 38.32L71.6047 35.6727L65.5543 28.8192L62.5556 31.4664ZM83.677 5.40527L83.952 6.02832L87.6114 4.41305L87.3363 3.79L83.677 5.40527ZM84.2824 3.89705L76.0317 13.2428L79.0303 15.8901L87.281 6.54433L84.2824 3.89705ZM84.509 23.0795L93.0347 13.7337L90.0796 11.0379L81.5539 20.3837L84.509 23.0795ZM91.5571 14.3858H92.3822V10.3858H91.5571V14.3858ZM77.3798 28.3822C74.8504 27.0189 72.7452 25.2168 72.0544 22.2174L68.1564 23.1151C69.2222 27.7427 72.511 30.302 75.482 31.9034L77.3798 28.3822Z" fill="black"/>
<path d="M39.6513 38.4363L30.2252 56.5217L14.2225 44.1149L20.7749 32.2521C22.9447 27.4892 25.2896 28.3437 26.5281 29.2578L39.6513 38.4363Z" fill="#FCBC04"/>
<path d="M3.50225 39.8422L5.44676 37.3111L14.2225 44.1149M14.2225 44.1149L30.2252 56.5217L39.6513 38.4363L26.5281 29.2578C25.2896 28.3437 22.9447 27.4892 20.7749 32.2521L14.2225 44.1149Z" stroke="black" stroke-width="6" stroke-linecap="round" stroke-linejoin="round"/>
<path d="M23.5779 43.5785C24.4276 45.4539 26.4817 46.5428 28.313 45.4782C30.1442 44.4136 30.5609 41.8884 29.7112 40.013C28.8615 38.1376 26.8074 37.0487 24.9761 38.1133C23.1449 39.1779 22.7282 41.7031 23.5779 43.5785Z" fill="#F89C8D" stroke="black" stroke-width="2"/>
<path d="M39.4283 8.70695L46.7735 34.1602L56.8564 27.7388L54.6665 19.5241L52.9458 13.0697L50.7568 4.43234L39.4283 8.70695Z" fill="#84D2F4"/>
<path d="M54.6665 19.5241L56.8564 27.7388L46.7735 34.1602L39.4283 8.70695L50.7568 4.43234L52.9458 13.0697M54.6665 19.5241L49.2335 21.4792M54.6665 19.5241L52.9458 13.0697M52.9458 13.0697L47.4398 14.9485" stroke="black" stroke-width="5" stroke-linecap="round" stroke-linejoin="round"/>
<path d="M39.853 30.5296L29.6772 42.3676L34.0776 47.6635L31.8774 53.8941H25.0018V71.028L31.8774 71.3396L34.0776 76.947L29.6772 82.866L40.4031 94.3925L45.3535 89.4081L50.3039 91.5888L50.8539 100H65.4301L65.9801 91.5888L70.9305 89.4081L76.156 94.3925L86.3318 82.866L81.9314 76.947L84.4066 71.3396L91.0072 71.028V53.8941H83.8566L81.9314 47.6635L86.3318 42.3676L76.156 30.5296L70.9305 35.8255L65.9801 33.0218L65.4301 25.5452H50.3039V32.7103L45.3535 35.8255L39.853 30.5296Z" fill="#F9E109" stroke="black" stroke-width="4"/>
<ellipse cx="57.7295" cy="63.8629" rx="13.4761" ry="15.2648" fill="white" stroke="black" stroke-width="4"/>
</svg>
