<svg width="100" height="110" viewBox="0 0 100 110" fill="none" xmlns="http://www.w3.org/2000/svg">
<rect x="16.9" y="19.8652" width="80.6" height="87.6347" rx="4.5" fill="#C4C4C4" stroke="black" stroke-width="5"/>
<rect x="9.69995" y="10.8833" width="80.6" height="87.6347" rx="4.5" fill="#C4C4C4" stroke="black" stroke-width="5"/>
<path d="M7 2.5C4.51472 2.5 2.5 4.51472 2.5 7V85.6347C2.5 88.12 4.51471 90.1347 7 90.1347H78.6C81.0853 90.1347 83.1 88.12 83.1 85.6347V7C83.1 4.51472 81.0853 2.5 78.6 2.5H7Z" fill="#C4C4C4" stroke="black" stroke-width="5"/>
<rect x="21" y="11.3833" width="43.6" height="8.79042" rx="4.39521" fill="#8C9EFF" stroke="black" stroke-width="4"/>
<rect x="11.86" y="27.0508" width="15.8" height="13.982" rx="4.5" fill="#FF3D7A" stroke="black" stroke-width="5"/>
<path d="M16.36 47.4102C13.8747 47.4102 11.86 49.4249 11.86 51.9102V56.8922C11.86 59.3775 13.8747 61.3922 16.36 61.3922H23.16C25.6453 61.3922 27.66 59.3775 27.66 56.8922V51.9102C27.66 49.4249 25.6453 47.4102 23.16 47.4102H16.36Z" fill="#F9E109" stroke="black" stroke-width="5"/>
<rect x="11.86" y="67.7695" width="15.8" height="13.982" rx="4.5" fill="#F9E109" stroke="black" stroke-width="5"/>
<path d="M18.6801 31.6468L21.2001 35.2396L32.0001 27.1558" stroke="black" stroke-width="4" stroke-linecap="round" stroke-linejoin="round"/>
<line x1="37.02" y1="30.0449" x2="66.58" y2="30.0449" stroke="black" stroke-width="5" stroke-linecap="round" stroke-linejoin="round"/>
<line x1="37.02" y1="36.033" x2="62.26" y2="36.033" stroke="black" stroke-width="5" stroke-linecap="round" stroke-linejoin="round"/>
<line x1="37.02" y1="56.3923" x2="66.58" y2="56.3923" stroke="black" stroke-width="5" stroke-linecap="round" stroke-linejoin="round"/>
<line x1="37.02" y1="70.1646" x2="66.58" y2="70.1646" stroke="black" stroke-width="5" stroke-linecap="round" stroke-linejoin="round"/>
<line x1="37.02" y1="76.7515" x2="60.1" y2="76.7515" stroke="black" stroke-width="5" stroke-linecap="round" stroke-linejoin="round"/>
<line x1="37.02" y1="49.8054" x2="56.5" y2="49.8054" stroke="black" stroke-width="5" stroke-linecap="round" stroke-linejoin="round"/>
</svg>
